<?xml version="1.0" encoding="utf-8"?>
<!-- Generator: Adobe Illustrator 22.1.0, SVG Export Plug-In . SVG Version: 6.00 Build 0)  -->
<svg version="1.1" id="Camada_1" xmlns="http://www.w3.org/2000/svg" xmlns:xlink="http://www.w3.org/1999/xlink" x="0px" y="0px"
	 viewBox="0 0 1700.8 850.4" style="enable-background:new 0 0 1700.8 850.4;" xml:space="preserve">
<style type="text/css">
	.st0{fill:none;stroke:#FF0000;stroke-width:0.1;stroke-linecap:round;}
</style>
<g id="svgGroup">
	<path id="front_outsideCutPath_1_" vector-effect="non-scaling-stroke" class="st0" d="M2322,80.9h22.7v-8.5h28.3v8.5h28.3v-8.5
		h28.3v8.5h28.3v-8.5h28.3v8.5h28.3v-8.5h28.3v8.5h22.7V58.2h-8.5V29.9h8.5V7.2h-22.7v8.5h-28.3V7.2h-28.3v8.5H2458V7.2h-28.3v8.5
		h-28.3V7.2H2373v8.5h-28.3V7.2H2322"/>
	<path id="left_outsideCutPath" vector-effect="non-scaling-stroke" class="st0" d="M1981.8,7.2v22.7h-8.5v28.3h8.5v22.7h14.2v-8.5
		h28.3v8.5h28.3v-8.5h28.3v8.5h28.3v-8.5h28.3v8.5h28.3v-8.5h28.3v8.5h28.3v-8.5h28.3v8.5h28.3v-8.5h28.3v8.5h14.2V58.2h8.5V29.9
		h-8.5V7.2h-14.2v8.5h-28.3V7.2h-28.3v8.5h-28.3V7.2h-28.3v8.5h-28.3V7.2h-28.3v8.5h-28.3V7.2H2081v8.5h-28.3V7.2h-28.3v8.5H1996
		V7.2H1981.8z"/>
	<path id="top_outsideCutPath_3_" vector-effect="non-scaling-stroke" class="st0" d="M2557.3,421v-14.2h8.5v-28.3h-8.5v-28.3h8.5
		v-28.3h-8.5v-28.3h8.5v-28.3h-8.5v-28.3h8.5v-28.3h-8.5v-28.3h8.5v-28.3h-8.5v-28.3h8.5V95.1h-8.5V80.9"/>
	<path id="top_outsideCutPath_2_" vector-effect="non-scaling-stroke" class="st0" d="M2330.5,80.9v14.2h-8.5v28.3h8.5v28.3h-8.5
		v28.3h8.5v28.3h-8.5v28.3h8.5v28.3h-8.5v28.3h8.5v28.3h-8.5v28.3h8.5v28.3h-8.5v28.3h8.5V421"/>
	<path id="back_outsideCutPath" vector-effect="non-scaling-stroke" class="st0" d="M1973.4,421.1v22.7h8.5v28.3h-8.5v22.7h22.7
		v-8.5h28.3v8.5h28.3v-8.5h28.3v8.5h28.3v-8.5h28.3v8.5h28.3v-8.5h28.3v8.5h22.7v-22.7h-8.5v-28.3h8.5v-22.7h-22.7v8.5h-28.3v-8.5
		h-28.3v8.5h-28.3v-8.5h-28.3v8.5h-28.3v-8.5h-28.3v8.5H1996v-8.5H1973.4z"/>
	<path id="right_outsideCutPath_1_" vector-effect="non-scaling-stroke" class="st0" d="M2217.1,494.8h14.2v-8.5h28.3v8.5h28.3v-8.5
		h28.3v8.5h28.3v-8.5h28.3v8.5h28.3v-8.5h28.3v8.5h28.3v-8.5h28.3v8.5h28.3v-8.5h28.3v8.5h14.2v-22.7h8.5v-28.3h-8.5v-22.7h-14.2
		v8.5h-28.3v-8.5h-28.3v8.5h-28.3v-8.5h-28.3v8.5h-28.3v-8.5H2373v8.5h-28.3v-8.5h-28.3v8.5H2288v-8.5h-28.3v8.5h-28.3v-8.5h-14.2"
		/>
	<path id="bottom_outsideCutPath_1_" vector-effect="non-scaling-stroke" class="st0" d="M2208.6,421v-14.2h8.5v-28.3h-8.5v-28.3
		h8.5v-28.3h-8.5v-28.3h8.5v-28.3h-8.5v-28.3h8.5v-28.3h-8.5v-28.3h8.5v-28.3h-8.5v-28.3h8.5V95.1h-8.5V80.9"/>
	<path id="bottom_outsideCutPath_3_" vector-effect="non-scaling-stroke" class="st0" d="M1981.9,80.9v14.2h-8.5v28.3h8.5v28.3h-8.5
		v28.3h8.5v28.3h-8.5v28.3h8.5v28.3h-8.5v28.3h8.5v28.3h-8.5v28.3h8.5v28.3h-8.5v28.3h8.5V421"/>
</g>
<g id="svgGroup_1_">
	<path id="front_outsideCutPath_2_" vector-effect="non-scaling-stroke" class="st0" d="M2914.4,80.9h22.7v-8.5h28.3v8.5h28.3v-8.5
		h28.3v8.5h28.3v-8.5h28.3v8.5h28.3v-8.5h28.3v8.5h22.7V58.2h-8.5V29.8h8.5V7.2h-22.7v8.5h-28.3V7.2h-28.3v8.5h-28.3V7.2h-28.3v8.5
		h-28.3V7.2h-28.3v8.5h-28.3V7.2h-22.7"/>
	<path id="left_outsideCutPath_1_" vector-effect="non-scaling-stroke" class="st0" d="M2574.3,7.2v22.7h-8.5v28.3h8.5v22.7h14.2
		v-8.5h28.3v8.5h28.3v-8.5h28.3v8.5h28.3v-8.5h28.3v8.5h28.3v-8.5h28.3v8.5h28.3v-8.5h28.3v8.5h28.3v-8.5h28.3v8.5h14.2V58.2h8.5
		V29.8h-8.5V7.2h-14.2v8.5h-28.3V7.2h-28.3v8.5h-28.3V7.2h-28.3v8.5h-28.3V7.2h-28.3v8.5h-28.3V7.2h-28.3v8.5h-28.3V7.2h-28.3v8.5
		h-28.3V7.2H2574.3z"/>
	<path id="top_outsideCutPath_4_" vector-effect="non-scaling-stroke" class="st0" d="M3149.7,421v-14.2h8.5v-28.3h-8.5v-28.3h8.5
		v-28.3h-8.5v-28.3h8.5v-28.3h-8.5v-28.3h8.5v-28.3h-8.5v-28.3h8.5v-28.3h-8.5v-28.3h8.5V95h-8.5V80.9"/>
	<path id="top_outsideCutPath_1_" vector-effect="non-scaling-stroke" class="st0" d="M2923,80.9V95h-8.5v28.3h8.5v28.3h-8.5v28.3
		h8.5v28.3h-8.5v28.3h8.5v28.3h-8.5v28.3h8.5v28.3h-8.5v28.3h8.5v28.3h-8.5v28.3h8.5V421"/>
	<path id="back_outsideCutPath_1_" vector-effect="non-scaling-stroke" class="st0" d="M2565.8,421.1v22.7h8.5v28.3h-8.5v22.7h22.7
		v-8.5h28.3v8.5h28.3v-8.5h28.3v8.5h28.3v-8.5h28.3v8.5h28.3v-8.5h28.3v8.5h22.7v-22.7h-8.5v-28.3h8.5v-22.7h-22.7v8.5h-28.3v-8.5
		h-28.3v8.5h-28.3v-8.5h-28.3v8.5h-28.3v-8.5h-28.3v8.5h-28.3v-8.5H2565.8z"/>
	<path id="right_outsideCutPath_2_" vector-effect="non-scaling-stroke" class="st0" d="M2809.6,494.8h14.2v-8.5h28.3v8.5h28.3v-8.5
		h28.3v8.5h28.3v-8.5h28.3v8.5h28.3v-8.5h28.3v8.5h28.3v-8.5h28.3v8.5h28.3v-8.5h28.3v8.5h14.2v-22.7h8.5v-28.3h-8.5v-22.7h-14.2
		v8.5h-28.3v-8.5h-28.3v8.5h-28.3v-8.5h-28.3v8.5h-28.3v-8.5h-28.3v8.5h-28.3v-8.5h-28.3v8.5h-28.3v-8.5h-28.3v8.5h-28.3v-8.5h-14.2
		"/>
	<path id="bottom_outsideCutPath_4_" vector-effect="non-scaling-stroke" class="st0" d="M2801.1,421v-14.2h8.5v-28.3h-8.5v-28.3
		h8.5v-28.3h-8.5v-28.3h8.5v-28.3h-8.5v-28.3h8.5v-28.3h-8.5v-28.3h8.5v-28.3h-8.5v-28.3h8.5V95h-8.5V80.9"/>
	<path id="bottom_outsideCutPath_2_" vector-effect="non-scaling-stroke" class="st0" d="M2574.3,80.9V95h-8.5v28.3h8.5v28.3h-8.5
		v28.3h8.5v28.3h-8.5v28.3h8.5v28.3h-8.5v28.3h8.5v28.3h-8.5v28.3h8.5v28.3h-8.5v28.3h8.5V421"/>
</g>
<g id="svgGroup_2_">
	<path id="front_outsideCutPath_3_" vector-effect="non-scaling-stroke" class="st0" d="M363.7,80.9h22.7v-8.5h28.3v8.5H443v-8.5
		h28.3v8.5h28.3v-8.5h28.3v8.5h28.3v-8.5h28.3v8.5h22.7V58.2h-8.5V29.8h8.5V7.2h-22.7v8.5h-28.3V7.2h-28.3v8.5h-28.3V7.2h-28.3v8.5
		H443V7.2h-28.3v8.5h-28.3V7.2h-22.7"/>
	<path id="left_outsideCutPath_2_" vector-effect="non-scaling-stroke" class="st0" d="M23.5,7.2v22.7H15v28.3h8.5v22.7h14.2v-8.5
		H66v8.5h28.3v-8.5h28.3v8.5h28.3v-8.5h28.3v8.5h28.3v-8.5h28.3v8.5h28.3v-8.5h28.3v8.5h28.3v-8.5h28.3v8.5h14.2V58.2h8.5V29.8h-8.5
		V7.2h-14.2v8.5h-28.3V7.2h-28.3v8.5h-28.3V7.2h-28.3v8.5h-28.3V7.2h-28.3v8.5h-28.3V7.2h-28.3v8.5H94.4V7.2H66v8.5H37.7V7.2H23.5z"
		/>
	<path id="top_outsideCutPath_6_" vector-effect="non-scaling-stroke" class="st0" d="M599,421v-14.2h8.5v-28.3H599v-28.3h8.5v-28.3
		H599v-28.3h8.5v-28.3H599v-28.3h8.5v-28.3H599v-28.3h8.5v-28.3H599v-28.3h8.5V95H599V80.9"/>
	<path id="top_outsideCutPath_5_" vector-effect="non-scaling-stroke" class="st0" d="M372.2,80.9V95h-8.5v28.3h8.5v28.3h-8.5v28.3
		h8.5v28.3h-8.5v28.3h8.5v28.3h-8.5v28.3h8.5v28.3h-8.5v28.3h8.5v28.3h-8.5v28.3h8.5V421"/>
	<path id="back_outsideCutPath_2_" vector-effect="non-scaling-stroke" class="st0" d="M15.1,421.1v22.7h8.5v28.3h-8.5v22.7h22.7
		v-8.5h28.3v8.5h28.3v-8.5h28.3v8.5h28.3v-8.5h28.3v8.5h28.3v-8.5h28.3v8.5h22.7v-22.7h-8.5v-28.3h8.5v-22.7h-22.7v8.5h-28.3v-8.5
		h-28.3v8.5h-28.3v-8.5h-28.3v8.5H94.4v-8.5H66.1v8.5H37.7v-8.5H15.1z"/>
	<path id="right_outsideCutPath_3_" vector-effect="non-scaling-stroke" class="st0" d="M258.8,494.8H273v-8.5h28.3v8.5h28.3v-8.5
		h28.3v8.5h28.3v-8.5h28.3v8.5h28.3v-8.5h28.3v8.5h28.3v-8.5h28.3v8.5h28.3v-8.5h28.3v8.5H599v-22.7h8.5v-28.3H599v-22.7h-14.2v8.5
		h-28.3v-8.5h-28.3v8.5h-28.3v-8.5h-28.3v8.5h-28.3v-8.5h-28.3v8.5h-28.3v-8.5h-28.3v8.5h-28.3v-8.5h-28.3v8.5H273v-8.5h-14.2"/>
	<path id="bottom_outsideCutPath_6_" vector-effect="non-scaling-stroke" class="st0" d="M250.3,421v-14.2h8.5v-28.3h-8.5v-28.3h8.5
		v-28.3h-8.5v-28.3h8.5v-28.3h-8.5v-28.3h8.5v-28.3h-8.5v-28.3h8.5v-28.3h-8.5v-28.3h8.5V95h-8.5V80.9"/>
	<path id="bottom_outsideCutPath_5_" vector-effect="non-scaling-stroke" class="st0" d="M23.6,80.9V95h-8.5v28.3h8.5v28.3h-8.5
		v28.3h8.5v28.3h-8.5v28.3h8.5v28.3h-8.5v28.3h8.5v28.3h-8.5v28.3h8.5v28.3h-8.5v28.3h8.5V421"/>
</g>
<g id="svgGroup_3_">
	<path id="front_outsideCutPath_4_" vector-effect="non-scaling-stroke" class="st0" d="M3232.5,251.1l0-22.7l-8.5,0l0-28.3l8.5,0
		l0-28.3l-8.5,0l0-28.3l8.5,0l0-28.3l-8.5,0l0-28.3l8.5,0l0-28.3l-8.5,0l0-28.3l8.5,0l0-22.7l-22.7,0l0,8.5l-28.3,0l0-8.5l-22.7,0
		l0,22.7l8.5,0l0,28.3l-8.5,0l0,28.3l8.5,0l0,28.3l-8.5,0l0,28.3l8.5,0l0,28.3l-8.5,0l0,28.3l8.5,0l0,28.3l-8.5,0l0,22.7"/>
	<path id="left_outsideCutPath_3_" vector-effect="non-scaling-stroke" class="st0" d="M3158.2,591.1l22.7,0l0,8.5l28.3,0l0-8.5
		l22.7,0l0-14.2l-8.5,0l0-28.3l8.5,0l0-28.3l-8.5,0l0-28.3l8.5,0l0-28.3l-8.5,0l0-28.3l8.5,0l0-28.3l-8.5,0l0-28.3l8.5,0l0-28.3
		l-8.5,0l0-28.3l8.5,0l0-28.3l-8.5,0l0-28.3l8.5,0l0-14.2l-22.7,0l0-8.5l-28.3,0l0,8.5l-22.7,0l0,14.2l8.5,0l0,28.3l-8.5,0l0,28.3
		l8.5,0l0,28.3l-8.5,0l0,28.3l8.5,0l0,28.3l-8.5,0l0,28.3l8.5,0l0,28.3l-8.5,0l0,28.3l8.5,0l0,28.3l-8.5,0l0,28.3l8.5,0l0,28.3
		l-8.5,0L3158.2,591.1z"/>
	<path id="top_outsideCutPath_8_" vector-effect="non-scaling-stroke" class="st0" d="M3573,16.3l-14.2,0l0-8.5l-28.3,0l0,8.5
		l-28.3,0l0-8.5l-28.3,0l0,8.5l-28.3,0l0-8.5l-28.3,0l0,8.5l-28.3,0l0-8.5l-28.3,0l0,8.5l-28.3,0l0-8.5l-28.3,0l0,8.5l-28.3,0l0-8.5
		l-28.3,0l0,8.5l-14.2,0"/>
	<path id="top_outsideCutPath_7_" vector-effect="non-scaling-stroke" class="st0" d="M3232.5,242.5l14.2,0l0,8.5l28.3,0l0-8.5
		l28.3,0l0,8.5l28.3,0l0-8.5l28.3,0l0,8.5l28.3,0l0-8.5l28.3,0l0,8.5l28.3,0l0-8.5l28.3,0l0,8.5l28.3,0l0-8.5l28.3,0l0,8.5l28.3,0
		l0-8.5l14.2,0"/>
	<path id="back_outsideCutPath_3_" vector-effect="non-scaling-stroke" class="st0" d="M3572.1,600.2l22.7,0l0-8.5l28.3,0l0,8.5
		l22.7,0l0-22.7l-8.5,0l0-28.3l8.5,0l0-28.3l-8.5,0l0-28.3l8.5,0l0-28.3l-8.5,0l0-28.3l8.5,0l0-28.3l-8.5,0l0-28.3l8.5,0l0-22.7
		l-22.7,0l0,8.5l-28.3,0l0-8.5l-22.7,0l0,22.7l8.5,0l0,28.3l-8.5,0l0,28.3l8.5,0l0,28.3l-8.5,0l0,28.3l8.5,0l0,28.3l-8.5,0l0,28.3
		l8.5,0l0,28.3l-8.5,0L3572.1,600.2z"/>
	<path id="right_outsideCutPath_4_" vector-effect="non-scaling-stroke" class="st0" d="M3646.2,356.6l0-14.2l-8.5,0l0-28.3l8.5,0
		l0-28.3l-8.5,0l0-28.3l8.5,0l0-28.3l-8.5,0l0-28.3l8.5,0l0-28.3l-8.5,0l0-28.3l8.5,0l0-28.3l-8.5,0l0-28.3l8.5,0l0-28.3l-8.5,0
		l0-28.3l8.5,0l0-14.2l-22.7,0l0-8.5l-28.3,0l0,8.5l-22.7,0l0,14.2l8.5,0l0,28.3l-8.5,0l0,28.3l8.5,0l0,28.3l-8.5,0l0,28.3l8.5,0
		l0,28.3l-8.5,0l0,28.3l8.5,0l0,28.3l-8.5,0l0,28.3l8.5,0l0,28.3l-8.5,0l0,28.3l8.5,0l0,28.3l-8.5,0l0,14.2"/>
	<path id="bottom_outsideCutPath_8_" vector-effect="non-scaling-stroke" class="st0" d="M3572.5,365l-14.2,0l0-8.5l-28.3,0l0,8.5
		l-28.3,0l0-8.5l-28.3,0l0,8.5l-28.3,0l0-8.5l-28.3,0l0,8.5l-28.3,0l0-8.5l-28.3,0l0,8.5l-28.3,0l0-8.5l-28.3,0l0,8.5l-28.3,0l0-8.5
		l-28.3,0l0,8.5l-14.2,0"/>
	<path id="bottom_outsideCutPath_7_" vector-effect="non-scaling-stroke" class="st0" d="M3232,591.2l14.2,0l0,8.5l28.3,0l0-8.5
		l28.3,0l0,8.5l28.3,0l0-8.5l28.3,0l0,8.5l28.3,0l0-8.5l28.3,0l0,8.5l28.3,0l0-8.5l28.3,0l0,8.5l28.3,0l0-8.5l28.3,0l0,8.5l28.3,0
		l0-8.5l14.2,0"/>
</g>
<g id="svgGroup_4_">
	<path id="front_outsideCutPath_5_" vector-effect="non-scaling-stroke" class="st0" d="M956.2,80.9h22.7v-8.5h28.3v8.5h28.3v-8.5
		h28.3v8.5h28.3v-8.5h28.3v8.5h28.3v-8.5h28.3v8.5h22.7V58.2h-8.5V29.8h8.5V7.2h-22.7v8.5h-28.3V7.2h-28.3v8.5h-28.3V7.2h-28.3v8.5
		h-28.3V7.2h-28.3v8.5h-28.3V7.2h-22.7"/>
	<path id="left_outsideCutPath_4_" vector-effect="non-scaling-stroke" class="st0" d="M616,7.2v22.7h-8.5v28.3h8.5v22.7h14.2v-8.5
		h28.3v8.5h28.3v-8.5h28.3v8.5h28.3v-8.5h28.3v8.5h28.3v-8.5h28.3v8.5h28.3v-8.5h28.3v8.5h28.3v-8.5H942v8.5h14.2V58.2h8.5V29.8
		h-8.5V7.2H942v8.5h-28.3V7.2h-28.3v8.5h-28.3V7.2h-28.3v8.5h-28.3V7.2h-28.3v8.5h-28.3V7.2h-28.3v8.5h-28.3V7.2h-28.3v8.5h-28.3
		V7.2H616z"/>
	<path id="top_outsideCutPath_10_" vector-effect="non-scaling-stroke" class="st0" d="M1191.5,421v-14.2h8.5v-28.3h-8.5v-28.3h8.5
		v-28.3h-8.5v-28.3h8.5v-28.3h-8.5v-28.3h8.5v-28.3h-8.5v-28.3h8.5v-28.3h-8.5v-28.3h8.5V95h-8.5V80.9"/>
	<path id="top_outsideCutPath_9_" vector-effect="non-scaling-stroke" class="st0" d="M964.7,80.9V95h-8.5v28.3h8.5v28.3h-8.5v28.3
		h8.5v28.3h-8.5v28.3h8.5v28.3h-8.5v28.3h8.5v28.3h-8.5v28.3h8.5v28.3h-8.5v28.3h8.5V421"/>
	<path id="back_outsideCutPath_4_" vector-effect="non-scaling-stroke" class="st0" d="M607.6,421v22.7h8.5v28.3h-8.5v22.7h22.7
		v-8.5h28.3v8.5h28.3v-8.5h28.3v8.5h28.3v-8.5H772v8.5h28.3v-8.5h28.3v8.5h22.7v-22.7h-8.5v-28.3h8.5V421h-22.7v8.5h-28.3V421H772
		v8.5h-28.3V421h-28.3v8.5h-28.3V421h-28.3v8.5h-28.3V421H607.6z"/>
	<path id="right_outsideCutPath_5_" vector-effect="non-scaling-stroke" class="st0" d="M851.3,494.8h14.2v-8.5h28.3v8.5h28.3v-8.5
		h28.3v8.5h28.3v-8.5h28.3v8.5h28.3v-8.5h28.3v8.5h28.3v-8.5h28.3v8.5h28.3v-8.5h28.3v8.5h14.2v-22.7h8.5v-28.3h-8.5V421h-14.2v8.5
		H1149V421h-28.3v8.5h-28.3V421h-28.3v8.5h-28.3V421h-28.3v8.5h-28.3V421h-28.3v8.5h-28.3V421h-28.3v8.5h-28.3V421h-14.2"/>
	<path id="bottom_outsideCutPath_10_" vector-effect="non-scaling-stroke" class="st0" d="M842.8,421v-14.2h8.5v-28.3h-8.5v-28.3
		h8.5v-28.3h-8.5v-28.3h8.5v-28.3h-8.5v-28.3h8.5v-28.3h-8.5v-28.3h8.5v-28.3h-8.5v-28.3h8.5V95h-8.5V80.9"/>
	<path id="bottom_outsideCutPath_9_" vector-effect="non-scaling-stroke" class="st0" d="M616.1,80.9V95h-8.5v28.3h8.5v28.3h-8.5
		v28.3h8.5v28.3h-8.5v28.3h8.5v28.3h-8.5v28.3h8.5v28.3h-8.5v28.3h8.5v28.3h-8.5v28.3h8.5V421"/>
</g>
<g id="svgGroup_5_">
	<path id="front_outsideCutPath_6_" vector-effect="non-scaling-stroke" class="st0" d="M1614.1,356.2l0,22.7l8.5,0l0,28.3l-8.5,0
		l0,28.3l8.5,0l0,28.3l-8.5,0l0,28.3l8.5,0l0,28.3l-8.5,0l0,28.3l8.5,0l0,28.3l-8.5,0l0,22.7l22.7,0l0-8.5l28.3,0l0,8.5l22.7,0
		l0-22.7l-8.5,0l0-28.3l8.5,0l0-28.3l-8.5,0l0-28.3l8.5,0l0-28.3l-8.5,0l0-28.3l8.5,0l0-28.3l-8.5,0l0-28.3l8.5,0l0-22.7"/>
	<path id="left_outsideCutPath_5_" vector-effect="non-scaling-stroke" class="st0" d="M1688.2,16.1l-22.7,0l0-8.5l-28.3,0l0,8.5
		l-22.7,0l0,14.2l8.5,0l0,28.3l-8.5,0l0,28.3l8.5,0l0,28.3l-8.5,0l0,28.3l8.5,0l0,28.3l-8.5,0l0,28.3l8.5,0l0,28.3l-8.5,0l0,28.3
		l8.5,0l0,28.3l-8.5,0l0,28.3l8.5,0l0,28.3l-8.5,0l0,14.2l22.7,0l0,8.5l28.3,0l0-8.5l22.7,0l0-14.2l-8.5,0l0-28.3l8.5,0l0-28.3
		l-8.5,0l0-28.3l8.5,0l0-28.3l-8.5,0l0-28.3l8.5,0l0-28.3l-8.5,0l0-28.3l8.5,0l0-28.3l-8.5,0l0-28.3l8.5,0l0-28.3l-8.5,0l0-28.3
		l8.5,0L1688.2,16.1z"/>
	<path id="top_outsideCutPath_12_" vector-effect="non-scaling-stroke" class="st0" d="M1273.7,591.2l14.2,0l0,8.5l28.3,0l0-8.5
		l28.3,0l0,8.5l28.3,0l0-8.5l28.3,0l0,8.5l28.3,0l0-8.5l28.3,0l0,8.5l28.3,0l0-8.5l28.3,0l0,8.5l28.3,0l0-8.5l28.3,0l0,8.5l28.3,0
		l0-8.5l14.2,0"/>
	<path id="top_outsideCutPath_11_" vector-effect="non-scaling-stroke" class="st0" d="M1614.1,364.7l-14.2,0l0-8.5l-28.3,0l0,8.5
		l-28.3,0l0-8.5l-28.3,0l0,8.5l-28.3,0l0-8.5l-28.3,0l0,8.5l-28.3,0l0-8.5l-28.3,0l0,8.5l-28.3,0l0-8.5l-28.3,0l0,8.5l-28.3,0l0-8.5
		l-28.3,0l0,8.5l-14.2,0"/>
	<path id="back_outsideCutPath_5_" vector-effect="non-scaling-stroke" class="st0" d="M1274.3,7.2l-22.7,0l0,8.5l-28.3,0l0-8.5
		l-22.7,0l0,22.7l8.5,0l0,28.3l-8.5,0l0,28.3l8.5,0l0,28.3l-8.5,0l0,28.3l8.5,0l0,28.3l-8.5,0l0,28.3l8.5,0l0,28.3l-8.5,0l0,22.7
		l22.7,0l0-8.5l28.3,0l0,8.5l22.7,0l0-22.7l-8.5,0l0-28.3l8.5,0l0-28.3l-8.5,0l0-28.3l8.5,0l0-28.3l-8.5,0l0-28.3l8.5,0l0-28.3
		l-8.5,0l0-28.3l8.5,0L1274.3,7.2z"/>
	<path id="right_outsideCutPath_6_" vector-effect="non-scaling-stroke" class="st0" d="M1200.3,250.9l0,14.2l8.5,0l0,28.3l-8.5,0
		l0,28.3l8.5,0l0,28.3l-8.5,0l0,28.3l8.5,0l0,28.3l-8.5,0l0,28.3l8.5,0l0,28.3l-8.5,0l0,28.3l8.5,0l0,28.3l-8.5,0l0,28.3l8.5,0
		l0,28.3l-8.5,0l0,14.2l22.7,0l0,8.5l28.3,0l0-8.5l22.7,0l0-14.2l-8.5,0l0-28.3l8.5,0l0-28.3l-8.5,0l0-28.3l8.5,0l0-28.3l-8.5,0
		l0-28.3l8.5,0l0-28.3l-8.5,0l0-28.3l8.5,0l0-28.3l-8.5,0l0-28.3l8.5,0l0-28.3l-8.5,0l0-28.3l8.5,0l0-14.2"/>
	<path id="bottom_outsideCutPath_12_" vector-effect="non-scaling-stroke" class="st0" d="M1274.1,242.5l14.2,0l0,8.5l28.3,0l0-8.5
		l28.3,0l0,8.5l28.3,0l0-8.5l28.3,0l0,8.5l28.3,0l0-8.5l28.3,0l0,8.5l28.3,0l0-8.5l28.3,0l0,8.5l28.3,0l0-8.5l28.3,0l0,8.5l28.3,0
		l0-8.5l14.2,0"/>
	<path id="bottom_outsideCutPath_11_" vector-effect="non-scaling-stroke" class="st0" d="M1614.5,16.1l-14.2,0l0-8.5l-28.3,0l0,8.5
		l-28.3,0l0-8.5l-28.3,0l0,8.5l-28.3,0l0-8.5l-28.3,0l0,8.5l-28.3,0l0-8.5l-28.3,0l0,8.5l-28.3,0l0-8.5l-28.3,0l0,8.5l-28.3,0l0-8.5
		l-28.3,0l0,8.5l-14.2,0"/>
</g>
<rect x="2412.7" y="39.8" class="st0" width="62.4" height="8.5"/>
<rect x="2064.1" y="453.7" class="st0" width="62.4" height="8.5"/>
<rect x="2656.5" y="453.7" class="st0" width="62.4" height="8.5"/>
<rect x="3005.1" y="39.8" class="st0" width="62.4" height="8.5"/>
<rect x="3164.7" y="124.9" transform="matrix(4.489038e-11 -1 1 4.489038e-11 3066.7273 3324.9646)" class="st0" width="62.4" height="8.5"/>
<rect x="3578.5" y="474.1" transform="matrix(4.489038e-11 -1 1 4.489038e-11 3131.2561 4088.0542)" class="st0" width="62.4" height="8.5"/>
<rect x="3574.1" y="172.6" transform="matrix(7.688256e-11 -1 1 7.688256e-11 3428.8413 3790.6997)" class="st0" width="71.3" height="16.7"/>
<g id="svgGroup_6_">
	<path id="front_outsideCutPath" vector-effect="non-scaling-stroke" class="st0" d="M421.9,960v33.3h8.5v49.6h-8.5v33.3h40.4v-8.5
		h49.6v8.5h49.6v-8.5h49.6v8.5h49.6v-8.5h49.6v8.5h40.4v-33.3h-8.5v-49.6h8.5V960h-40.4v8.5h-49.6V960h-49.6v8.5h-49.6V960h-49.6
		v8.5h-49.6V960H421.9z"/>
	<path id="left_outsideCutPath_7_" vector-effect="non-scaling-stroke" class="st0" d="M305,1067.7v8.5h49.6v-8.5h49.6v8.5h17.7"/>
	<path id="left_outsideCutPath_6_" vector-effect="non-scaling-stroke" class="st0" d="M421.9,960h-17.7v8.5h-49.6V960H305v8.5
		h-49.6V960h-49.6v8.5h-49.6V960h-49.6v8.5H57V960H39.3v33.3h-8.5v49.6h8.5v33.3"/>
	<path id="top_outsideCutPath_14_" vector-effect="non-scaling-stroke" class="st0" d="M430.5,1076.1v17.7h-8.5v49.6h8.5v49.6h-8.5
		v49.6h8.5v49.6h-8.5v49.6h8.5v49.6h-8.5v49.6h8.5v17.7h31.9v8.5h49.6v-8.5h49.6v8.5h49.6v-8.5h49.6v8.5h49.6v-8.5h31.9v-17.7h8.5
		v-49.6h-8.5v-49.6h8.5v-49.6h-8.5v-49.6h8.5v-49.6h-8.5v-49.6h8.5v-49.6h-8.5v-17.7"/>
	<path id="back_outsideCutPath_6_" vector-effect="non-scaling-stroke" class="st0" d="M16.3,1458.8v33.3h8.5v49.6h-8.5v33.3h40.4
		v-8.5h49.6v8.5h49.6v-8.5h49.6v8.5h49.6v-8.5h49.6v8.5h40.4v-33.3h-8.5v-49.6h8.5v-33.3h-40.4v8.5h-49.6v-8.5h-49.6v8.5h-49.6v-8.5
		h-49.6v8.5H56.7v-8.5H16.3z"/>
	<path id="right_outsideCutPath_8_" vector-effect="non-scaling-stroke" class="st0" d="M462.1,1467.3v-8.5h-49.6v8.5h-49.6v-8.5
		h-17.7"/>
	<path id="right_outsideCutPath_7_" vector-effect="non-scaling-stroke" class="st0" d="M345.1,1575h17.7v-8.5h49.6v8.5h49.6v-8.5
		h49.6v8.5h49.6v-8.5h49.6v8.5h49.6v-8.5h49.6v8.5h17.7v-33.3h8.5v-49.6h-8.5v-33.3"/>
	<path id="bottom_outsideCutPath_13_" vector-effect="non-scaling-stroke" class="st0" d="M336.9,1458.8v-17.7h8.5v-49.6h-8.5v-49.6
		h8.5v-49.6h-8.5v-49.6h8.5v-49.6h-8.5v-49.6h8.5v-49.6h-8.5v-17.7H305v-8.5h-49.6v8.5h-49.6v-8.5h-49.6v8.5h-49.6v-8.5H57v8.5H25.1
		v17.7h-8.5v49.6h8.5v49.6h-8.5v49.6h8.5v49.6h-8.5v49.6h8.5v49.6h-8.5v49.6h8.5v17.7"/>
	<path id="front_outsideCutPath_7_" vector-effect="non-scaling-stroke" class="st0" d="M759.3,1076.1l31.9,0v-8.5h49.6v8.5h49.6
		v-8.5H940v8.5h49.6v-8.5h49.6v8.5l31.9,0"/>
	<path id="top_outsideCutPath_13_" vector-effect="non-scaling-stroke" class="st0" d="M759.3,1076.1v17.7h-8.5v49.6h8.5v49.6h-8.5
		v49.6h8.5v49.6h-8.5v49.6h8.5v49.6h-8.5v49.6h8.5v17.7h31.9v8.5h49.6v-8.5h49.6v8.5H940v-8.5h49.6v8.5h49.6v-8.5h31.9v-17.7h8.5
		v-49.6h-8.5v-49.6h8.5v-49.6h-8.5v-49.6h8.5V1193h-8.5v-49.6h8.5v-49.6h-8.5v-17.7"/>
</g>
<rect x="185.4" y="996.6" class="st0" width="81.9" height="43"/>
<rect x="548.3" y="1215.1" class="st0" width="85" height="85"/>
<circle class="st0" cx="492" cy="1118.1" r="10"/>
<rect x="858.5" y="1186.8" class="st0" width="113.4" height="141.7"/>
<circle class="st0" cx="817.4" cy="1118.1" r="10"/>
<g id="svgGroup_7_">
	<path id="front_outsideCutPath_8_" vector-effect="non-scaling-stroke" class="st0" d="M1209.7,1219l0-22.7l-8.5,0l0-28.3l8.5,0
		l0-28.3l-8.5,0l0-28.3l8.5,0l0-28.3l-8.5,0l0-28.3l8.5,0l0-28.3l-8.5,0l0-28.3l8.5,0l0-22.7l-22.7,0l0,8.5l-28.3,0l0-8.5l-22.7,0
		l0,22.7l8.5,0l0,28.3l-8.5,0l0,28.3l8.5,0l0,28.3l-8.5,0l0,28.3l8.5,0l0,28.3l-8.5,0l0,28.3l8.5,0l0,28.3l-8.5,0l0,22.7"/>
	<path id="left_outsideCutPath_8_" vector-effect="non-scaling-stroke" class="st0" d="M1135.4,1559.1l22.7,0l0,8.5l28.3,0l0-8.5
		l22.7,0l0-14.2l-8.5,0l0-28.3l8.5,0l0-28.3l-8.5,0l0-28.3l8.5,0l0-28.3l-8.5,0l0-28.3l8.5,0l0-28.3l-8.5,0l0-28.3l8.5,0l0-28.3
		l-8.5,0l0-28.3l8.5,0l0-28.3l-8.5,0l0-28.3l8.5,0l0-14.2l-22.7,0l0-8.5l-28.3,0l0,8.5l-22.7,0l0,14.2l8.5,0l0,28.3l-8.5,0l0,28.3
		l8.5,0l0,28.3l-8.5,0l0,28.3l8.5,0l0,28.3l-8.5,0l0,28.3l8.5,0l0,28.3l-8.5,0l0,28.3l8.5,0l0,28.3l-8.5,0l0,28.3l8.5,0l0,28.3
		l-8.5,0L1135.4,1559.1z"/>
	<path id="top_outsideCutPath_16_" vector-effect="non-scaling-stroke" class="st0" d="M1550.2,984.3l-14.2,0l0-8.5l-28.3,0l0,8.5
		l-28.3,0l0-8.5l-28.3,0l0,8.5l-28.3,0l0-8.5l-28.3,0l0,8.5l-28.3,0l0-8.5l-28.3,0l0,8.5l-28.3,0l0-8.5l-28.3,0l0,8.5l-28.3,0l0-8.5
		l-28.3,0l0,8.5l-14.2,0"/>
	<path id="top_outsideCutPath_15_" vector-effect="non-scaling-stroke" class="st0" d="M1209.7,1210.5l14.2,0l0,8.5l28.3,0l0-8.5
		l28.3,0l0,8.5l28.3,0l0-8.5l28.3,0l0,8.5l28.3,0l0-8.5l28.3,0l0,8.5l28.3,0l0-8.5l28.3,0l0,8.5l28.3,0l0-8.5l28.3,0l0,8.5l28.3,0
		l0-8.5l14.2,0"/>
	<path id="back_outsideCutPath_7_" vector-effect="non-scaling-stroke" class="st0" d="M1549.3,1568.2l22.7,0l0-8.5l28.3,0l0,8.5
		l22.7,0l0-22.7l-8.5,0l0-28.3l8.5,0l0-28.3l-8.5,0l0-28.3l8.5,0l0-28.3l-8.5,0l0-28.3l8.5,0l0-28.3l-8.5,0l0-28.3l8.5,0l0-22.7
		l-22.7,0l0,8.5l-28.3,0l0-8.5l-22.7,0l0,22.7l8.5,0l0,28.3l-8.5,0l0,28.3l8.5,0l0,28.3l-8.5,0l0,28.3l8.5,0l0,28.3l-8.5,0l0,28.3
		l8.5,0l0,28.3l-8.5,0L1549.3,1568.2z"/>
	<path id="right_outsideCutPath_9_" vector-effect="non-scaling-stroke" class="st0" d="M1623.4,1324.5l0-14.2l-8.5,0l0-28.3l8.5,0
		l0-28.3l-8.5,0l0-28.3l8.5,0l0-28.3l-8.5,0l0-28.3l8.5,0l0-28.3l-8.5,0l0-28.3l8.5,0l0-28.3l-8.5,0l0-28.3l8.5,0l0-28.3l-8.5,0
		l0-28.3l8.5,0l0-14.2l-22.7,0l0-8.5l-28.3,0l0,8.5l-22.7,0l0,14.2l8.5,0l0,28.3l-8.5,0l0,28.3l8.5,0l0,28.3l-8.5,0l0,28.3l8.5,0
		l0,28.3l-8.5,0l0,28.3l8.5,0l0,28.3l-8.5,0l0,28.3l8.5,0l0,28.3l-8.5,0l0,28.3l8.5,0l0,28.3l-8.5,0l0,14.2"/>
	<path id="bottom_outsideCutPath_15_" vector-effect="non-scaling-stroke" class="st0" d="M1549.7,1332.9l-14.2,0l0-8.5l-28.3,0
		l0,8.5l-28.3,0l0-8.5l-28.3,0l0,8.5l-28.3,0l0-8.5l-28.3,0l0,8.5l-28.3,0l0-8.5l-28.3,0l0,8.5l-28.3,0l0-8.5l-28.3,0l0,8.5l-28.3,0
		l0-8.5l-28.3,0l0,8.5l-14.2,0"/>
	<path id="bottom_outsideCutPath_14_" vector-effect="non-scaling-stroke" class="st0" d="M1209.1,1559.1l14.2,0l0,8.5l28.3,0l0-8.5
		l28.3,0l0,8.5l28.3,0l0-8.5l28.3,0l0,8.5l28.3,0l0-8.5l28.3,0l0,8.5l28.3,0l0-8.5l28.3,0l0,8.5l28.3,0l0-8.5l28.3,0l0,8.5l28.3,0
		l0-8.5l14.2,0"/>
</g>
<rect x="1141.9" y="1092.8" transform="matrix(4.489038e-11 -1 1 4.489038e-11 75.9501 2270.1367)" class="st0" width="62.4" height="8.5"/>
<rect x="1555.7" y="1442.1" transform="matrix(4.489038e-11 -1 1 4.489038e-11 140.4789 3033.2261)" class="st0" width="62.4" height="8.5"/>
<rect x="1551.3" y="1140.6" transform="matrix(7.688256e-11 -1 1 7.688256e-11 438.0641 2735.8718)" class="st0" width="71.3" height="16.7"/>
</svg>
