<?xml version="1.0" encoding="utf-8"?>
<!-- Generator: Adobe Illustrator 22.1.0, SVG Export Plug-In . SVG Version: 6.00 Build 0)  -->
<svg version="1.1" id="Camada_1" xmlns="http://www.w3.org/2000/svg" xmlns:xlink="http://www.w3.org/1999/xlink" x="0px" y="0px"
	 viewBox="0 0 975.1 949.6" style="enable-background:new 0 0 975.1 949.6;" xml:space="preserve">
<style type="text/css">
	.st0{fill:none;stroke:#FF0000;stroke-width:0.1;stroke-linecap:round;}
</style>
<g id="svgGroup">
	<path id="front_outsideCutPath" vector-effect="non-scaling-stroke" class="st0" d="M465.8,45.9v34h8.5v34h-8.5v34h36.9v-8.5h34
		v8.5h34v-8.5h34v8.5h34v-8.5h34v8.5h34h2.8v-34h-8.5v-34h8.5v-34h-36.9v8.5h-34v-8.5h-34v8.5h-34v-8.5h-34v8.5h-34v-8.5h-34H465.8z
		"/>
	<path id="left_outsideCutPath_1_" vector-effect="non-scaling-stroke" class="st0" d="M465.8,45.9h-39.7v8.5h-34v-8.5h-34v8.5h-34
		v-8.5h-34v8.5h-34v-8.5h-34v8.5h-34v-8.5h-34v8.5h-34v-8.5h-34v8.5h-34v-8.5h-34h-5.7v34H3.7v34h8.5v34h39.7v-8.5h34v8.5h34v-8.5
		h34v8.5h34v-8.5h34v8.5h34v-8.5h34v8.5h34v-8.5h34v8.5h34v-8.5h34v8.5h34h5.7"/>
	<path id="top_outsideCutPath_1_" vector-effect="non-scaling-stroke" class="st0" d="M468.6,147.9h5.7v39.7h-8.5v34h8.5v34h-8.5v34
		h8.5v34h-8.5v34h8.5v34h-8.5v34h8.5v34h-8.5v34h8.5v34h-8.5v34h8.5v34v5.7h28.3v8.5h34v-8.5h34v8.5h34v-8.5h34v8.5h34v-8.5h34h-5.7
		v-39.7h8.5v-34h-8.5v-34h8.5v-34h-8.5v-34h8.5v-34h-8.5v-34h8.5v-34h-8.5v-34h8.5v-34h-8.5v-34h8.5v-34h-8.5v-34v-5.7"/>
	<path id="back_outsideCutPath" vector-effect="non-scaling-stroke" class="st0" d="M10,622.7v34h8.5v34H10v34h36.9v-8.5h34v8.5h34
		v-8.5h34v8.5h34v-8.5h34v8.5h34h2.8v-34h-8.5v-34h8.5v-34h-36.9v8.5h-34v-8.5h-34v8.5h-34v-8.5h-34v8.5h-34v-8.5h-34H10z"/>
	<path id="right_outsideCutPath_1_" vector-effect="non-scaling-stroke" class="st0" d="M253.8,724.8h39.7v-8.5h34v8.5h34v-8.5h34
		v8.5h34v-8.5h34v8.5h34v-8.5h34v8.5h34v-8.5h34v8.5h34v-8.5h34v8.5h34h5.7v-34h8.5v-34h-8.5v-34h-39.7v8.5h-34v-8.5h-34v8.5h-34
		v-8.5h-34v8.5h-34v-8.5h-34v8.5h-34v-8.5h-34v8.5h-34v-8.5h-34v8.5h-34v-8.5h-34h-5.7"/>
	<path id="bottom_outsideCutPath_1_" vector-effect="non-scaling-stroke" class="st0" d="M250.9,622.7h-5.7v-39.7h8.5v-34h-8.5v-34
		h8.5v-34h-8.5v-34h8.5v-34h-8.5v-34h8.5v-34h-8.5v-34h8.5v-34h-8.5v-34h8.5v-34h-8.5v-34v-5.7h-28.3v-8.5h-34v8.5h-34v-8.5h-34v8.5
		h-34v-8.5h-34v8.5h-34h5.7v39.7H10v34h8.5v34H10v34h8.5v34H10v34h8.5v34H10v34h8.5v34H10v34h8.5v34H10v34h8.5v34v5.7"/>
</g>
</svg>
