<?xml version="1.0" encoding="utf-8"?>
<!-- Generator: Adobe Illustrator 22.1.0, SVG Export Plug-In . SVG Version: 6.00 Build 0)  -->
<svg version="1.1" id="Camada_1" xmlns="http://www.w3.org/2000/svg" xmlns:xlink="http://www.w3.org/1999/xlink" x="0px" y="0px"
	 viewBox="0 0 1700.8 850.4" style="enable-background:new 0 0 1700.8 850.4;" xml:space="preserve">
<style type="text/css">
	.st0{fill:none;stroke:#FF0000;stroke-width:0.1;stroke-linecap:round;}
</style>
<g id="svgGroup">
	<path id="front_outsideCutPath" vector-effect="non-scaling-stroke" class="st0" d="M433.4,205.6v33.3h8.5v49.6h-8.5v33.3h40.4
		v-8.5h49.6v8.5H573v-8.5h49.6v8.5h49.6v-8.5h49.6v8.5h40.4v-33.3h-8.5v-49.6h8.5v-33.3h-40.4v8.5h-49.6v-8.5h-49.6v8.5H573v-8.5
		h-49.6v8.5h-49.6v-8.5H433.4z"/>
	<path id="left_outsideCutPath_3_" vector-effect="non-scaling-stroke" class="st0" d="M316.5,313.3v8.5h49.6v-8.5h49.6v8.5h17.7"/>
	<path id="left_outsideCutPath_1_" vector-effect="non-scaling-stroke" class="st0" d="M433.4,205.6h-17.7v8.5h-49.6v-8.5h-49.6v8.5
		h-49.6v-8.5h-49.6v8.5h-49.6v-8.5H118v8.5H68.4v-8.5H50.7v33.3h-8.5v49.6h8.5v33.3"/>
	<path id="top_outsideCutPath_1_" vector-effect="non-scaling-stroke" class="st0" d="M441.9,321.7v17.7h-8.5v49.6h8.5v49.6h-8.5
		v49.6h8.5v49.6h-8.5v49.6h8.5v49.6h-8.5v49.6h8.5v17.7h31.9v8.5h49.6v-8.5H573v8.5h49.6v-8.5h49.6v8.5h49.6v-8.5h31.9v-17.7h8.5
		v-49.6h-8.5v-49.6h8.5v-49.6h-8.5v-49.6h8.5v-49.6h-8.5v-49.6h8.5v-49.6h-8.5v-17.7"/>
	<path id="back_outsideCutPath" vector-effect="non-scaling-stroke" class="st0" d="M27.8,704.4v33.3h8.5v49.6h-8.5v33.3h40.4v-8.5
		h49.6v8.5h49.6v-8.5H217v8.5h49.6v-8.5h49.6v8.5h40.4v-33.3h-8.5v-49.6h8.5v-33.3h-40.4v8.5h-49.6v-8.5H217v8.5h-49.6v-8.5h-49.6
		v8.5H68.2v-8.5H27.8z"/>
	<path id="right_outsideCutPath_3_" vector-effect="non-scaling-stroke" class="st0" d="M473.5,712.9v-8.5h-49.6v8.5h-49.6v-8.5
		h-17.7"/>
	<path id="right_outsideCutPath_2_" vector-effect="non-scaling-stroke" class="st0" d="M356.6,820.6h17.7v-8.5h49.6v8.5h49.6v-8.5
		h49.6v8.5h49.6v-8.5h49.6v8.5H672v-8.5h49.6v8.5h17.7v-33.3h8.5v-49.6h-8.5v-33.3"/>
	<path id="bottom_outsideCutPath_1_" vector-effect="non-scaling-stroke" class="st0" d="M348.3,704.4v-17.7h8.5v-49.6h-8.5v-49.6
		h8.5v-49.6h-8.5v-49.6h8.5v-49.6h-8.5v-49.6h8.5v-49.6h-8.5v-17.7h-31.9v-8.5h-49.6v8.5h-49.6v-8.5h-49.6v8.5H118v-8.5H68.4v8.5
		H36.5v17.7H28v49.6h8.5v49.6H28v49.6h8.5v49.6H28v49.6h8.5v49.6H28v49.6h8.5v17.7"/>
	<path id="front_outsideCutPath_1_" vector-effect="non-scaling-stroke" class="st0" d="M770.7,321.7l31.9,0v-8.5h49.6v8.5h49.6
		v-8.5h49.6v8.5h49.6v-8.5h49.6v8.5l31.9,0"/>
	<path id="top_outsideCutPath_2_" vector-effect="non-scaling-stroke" class="st0" d="M770.7,321.7v17.7h-8.5V389h8.5v49.6h-8.5
		v49.6h8.5v49.6h-8.5v49.6h8.5v49.6h-8.5v49.6h8.5v17.7h31.9v8.5h49.6v-8.5h49.6v8.5h49.6v-8.5h49.6v8.5h49.6v-8.5h31.9v-17.7h8.5
		v-49.6h-8.5v-49.6h8.5v-49.6h-8.5v-49.6h8.5v-49.6h-8.5V389h8.5v-49.6h-8.5v-17.7"/>
</g>
<rect x="196.8" y="242.2" class="st0" width="81.9" height="43"/>
<rect x="559.7" y="460.7" class="st0" width="85" height="85"/>
<circle class="st0" cx="503.4" cy="363.7" r="10"/>
<rect x="869.9" y="432.4" class="st0" width="113.4" height="141.7"/>
<circle class="st0" cx="828.9" cy="363.7" r="10"/>
</svg>
