<?xml version="1.0" encoding="utf-8"?>
<!-- Generator: Adobe Illustrator 22.1.0, SVG Export Plug-In . SVG Version: 6.00 Build 0)  -->
<svg version="1.1" id="Camada_1" xmlns="http://www.w3.org/2000/svg" xmlns:xlink="http://www.w3.org/1999/xlink" x="0px" y="0px"
	 viewBox="0 0 1700.8 850.4" style="enable-background:new 0 0 1700.8 850.4;" xml:space="preserve">
<style type="text/css">
	.st0{fill:none;stroke:#FF0000;stroke-width:0.1;stroke-linecap:round;}
</style>
<g id="svgGroup">
	<path id="front_outsideCutPath" vector-effect="non-scaling-stroke" class="st0" d="M413,198v34h8.5v34H413v34h36.9v-8.5h34v8.5h34
		v-8.5h34v8.5h34v-8.5h34v8.5h34h2.8v-34h-8.5v-34h8.5v-34H620v8.5h-34V198h-34v8.5h-34V198h-34v8.5h-34V198h-34H413z"/>
	<path id="left_outsideCutPath_1_" vector-effect="non-scaling-stroke" class="st0" d="M413,198h-31.2v8.5h-34V198h-34v8.5h-34V198
		h-34v8.5h-34V198h-34v8.5h-34V198h-34v8.5h-34V198h-34h2.8v34H36v34h8.5v34h31.2v-8.5h34v8.5h34v-8.5h34v8.5h34v-8.5h34v8.5h34
		v-8.5h34v8.5h34v-8.5h34v8.5h34H413"/>
	<path id="top_outsideCutPath_2_" vector-effect="non-scaling-stroke" class="st0" d="M421.5,300v31.2H413v34h8.5v34H413v34h8.5v34
		H413v34h8.5v34H413v34h8.5v34H413v34h8.5v34v-2.8h28.3v8.5h34v-8.5h34v8.5h34v-8.5h34v8.5h34v-8.5h34h-5.7v-31.2h8.5v-34h-8.5v-34
		h8.5v-34h-8.5v-34h8.5v-34h-8.5v-34h8.5v-34h-8.5v-34h8.5v-34h-8.5v-34v2.8"/>
	<path id="back_outsideCutPath" vector-effect="non-scaling-stroke" class="st0" d="M27.5,727.7v34H36v34h-8.5v34h36.9v-8.5h34v8.5
		h34v-8.5h34v8.5h34v-8.5h34v8.5h34h2.8v-34h-8.5v-34h8.5v-34h-36.9v8.5h-34v-8.5h-34v8.5h-34v-8.5h-34v8.5h-34v-8.5h-34H27.5z"/>
	<path id="right_outsideCutPath_1_" vector-effect="non-scaling-stroke" class="st0" d="M271.3,829.8h31.2v-8.5h34v8.5h34v-8.5h34
		v8.5h34v-8.5h34v8.5h34v-8.5h34v8.5h34v-8.5h34v8.5h34h-2.8v-34h8.5v-34h-8.5v-34h-31.2v8.5h-34v-8.5h-34v8.5h-34v-8.5h-34v8.5h-34
		v-8.5h-34v8.5h-34v-8.5h-34v8.5h-34v-8.5h-34h2.8"/>
	<path id="bottom_outsideCutPath_1_" vector-effect="non-scaling-stroke" class="st0" d="M268.5,727.7h-5.7v-31.2h8.5v-34h-8.5v-34
		h8.5v-34h-8.5v-34h8.5v-34h-8.5v-34h8.5v-34h-8.5v-34h8.5v-34h-8.5v-34v2.8h-28.3v-8.5h-34v8.5h-34v-8.5h-34v8.5h-34v-8.5h-34v8.5
		h-34H36v31.2h-8.5v34H36v34h-8.5v34H36v34h-8.5v34H36v34h-8.5v34H36v34h-8.5v34H36v34v-2.8"/>
</g>
</svg>
